# AST/ASF file generated using VICON BodyLanguage
# -----------------------------------------------
:version 1.10
:name VICON
:units
  mass 1.0
  length 0.45
  angle deg
:documentation
   .ast/.asf automatically generated from VICON data using
   VICON BodyBuilder and BodyLanguage model FoxedUp or BRILLIANT.MOD
:root
   order TX TY TZ RX RY RZ
   axis XYZ
   position 0 0 0  
   orientation 0 -0 0 
:bonedata
  begin
     id 1 
     name lhipjoint
     direction 0.432694 -0.693742 0.575759 
     length 2.19277 
     axis 0 -0 0  XYZ
  end
  begin
     id 2 
     name lfemur
     direction 0.34202 -0.939693 0  
     length 6.69022  
     axis 0 -0 20  XYZ
    dof rx ry rz
    limits (-160.0 20.0)
           (-70.0 70.0)
           (-60.0 70.0)
  end
  begin
     id 3 
     name ltibia
     direction 0.34202 -0.939693 0   
     length 6.50337   
     axis 0 -0 20   XYZ
    dof rx
    limits (-10.0 170.0)
  end
  begin
     id 4 
     name lfoot
     direction 0.158999 -0.435969 0.885805   
     length 2.70564   
     axis -90 -1.13533e-015 20   XYZ
    dof rx rz
    limits (-45.0 90.0)
           (-70.0 20.0)
  end
  begin
     id 5 
     name ltoes
     direction -0.00592919 0.00964381 0.999936   
     length 1.29929   
     axis -90 -1.13533e-015 20   XYZ
    dof rx
    limits (-90.0 20.0)
  end
  begin
     id 6 
     name rhipjoint
     direction -0.414359 -0.700339 0.581234   
     length 2.17212  
     axis 0 -0 0  XYZ 
  end
  begin
     id 7 
     name rfemur
     direction -0.34202 -0.939693 0   
     length 7.17659   
     axis 0 -0 -20   XYZ
    dof rx ry rz
    limits (-160.0 20.0)
           (-70.0 70.0)
           (-70.0 60.0)
  end
  begin
     id 8 
     name rtibia
     direction -0.34202 -0.939693 0   
     length 6.36669   
     axis 0 -0 -20   XYZ
    dof rx
    limits (-10.0 170.0)
 end
 begin
     id 9 
     name rfoot
     direction -0.137064 -0.37658 0.916188   
     length 2.22351  
     axis -90 1.13533e-015 -20   XYZ
    dof rx rz
    limits (-45.0 90.0)
           (-20.0 70.0)
  end
  begin
     id 10 
     name rtoes
     direction -0.000784077 -0.00289101 0.999996   
     length 1.09522   
     axis -90 1.13533e-015 -20   XYZ
    dof rx
    limits (-90.0 20.0)
  end
  begin
     id 11 
     name lowerback
     direction -0.0176242 0.984912 -0.172157   
     length 1.65301   
     axis 0 -0 0   XYZ
    dof rx ry rz
    limits (-20.0 45.0)
           (-30.0 30.0)
           (-30.0 30.0)
  end
  begin
     id 12 
     name upperback
     direction -0.00218128 0.998776 -0.0494072   
     length 1.67776   
     axis 0 -0 0   XYZ
    dof rx ry rz
    limits (-20.0 45.0)
           (-30.0 30.0)
           (-30.0 30.0)
  end
  begin
     id 13 
     name thorax
     direction 0.00544186 0.999658 0.0255711   
     length 1.72293   
     axis 0 -0 0   XYZ
    dof rx ry rz
    limits (-20.0 45.0)
           (-30.0 30.0)
           (-30.0 30.0)
  end
  begin
     id 14 
     name lowerneck
     direction -0.105325 0.983841 0.144785   
     length 2.14226   
     axis 0 -0 0   XYZ
    dof rx ry rz
    limits (-20.0 45.0)
           (-30.0 30.0)
           (-30.0 30.0)
  end
  begin
     id 15 
     name upperneck
     direction 0.0547957 0.988053 -0.144041   
     length 2.17508   
     axis 0 -0 0   XYZ
    dof rx ry rz
    limits (-20.0 45.0)
           (-30.0 30.0)
           (-30.0 30.0)
  end
  begin
     id 16
     name head
     direction 0.0247488 0.997534 -0.0656813  
     length 2.20048  
     axis 0 -0 0   XYZ
    dof rx ry rz
    limits (-20.0 45.0)
           (-30.0 30.0)
           (-30.0 30.0)
  end
  begin
     id 17 
     name lclavicle
     direction 0.820559 0.567247 -0.0701026  
     length 4.09615  
     axis 0 -0 0   XYZ
    dof ry rz
    limits (-20.0 10.0)
           (0.0 20.0)
  end
  begin
     id 18 
     name lhumerus
     direction 0.999977 -0.0067566 -9.96392e-005   
     length 4.59333   
     axis -180 -30 -90   XYZ
    dof rx ry rz
    limits (-60.0 90.0)
           (-90.0 90.0)
           (-90.0 90.0)
  end
  begin
     id 19
     name lradius
     direction 1 -4.48982e-011 -2.53425e-027   
     length 2.81151   
     axis -180 -30 -90   XYZ
    dof rx
    limits (-10.0 170.0)
  end
  begin
     id 20
     name lwrist
     direction 1 -4.48939e-011 -7.39254e-028   
     length 1.40576   
     axis 2.56395e-016 90 90   XYZ
    dof ry
    limits (-180.0 0.0)
 end
  begin
     id 21 
     name lhand
     direction 1 -4.48939e-011 -1.47851e-027   
     length 0.895651   
     axis 9.43423e-016 90 90   XYZ
    dof rx rz
    limits (-90.0 90.0)
           (-45.0 45.0)
  end
  begin
     id 22 
     name lfingers
     direction 1 -4.48978e-011 -2.95702e-027   
     length 0.722097   
     axis 1.88685e-015 90 90   XYZ
    dof rx
    limits (0.0 90.0)
  end
  begin
     id 23
     name lthumb
     direction 0.707107 -6.34931e-011 0.707107   
     length 1.03679   
     axis -90 45 -9.86935e-015   XYZ
    dof rx rz
    limits (-45.0 45.0)
           (-45.0 45.0)
  end
  begin
     id 24 
     name rclavicle
     direction -0.831414 0.553102 -0.0531864   
     length 4.24872  
     axis 0 -0 0   XYZ 
    dof ry rz
    limits (-10.0 20.0)
           (-20.0 0.0)
  end
  begin
     id 25 
     name rhumerus
     direction -0.999916 -0.000939607 0.0129331  
     length 4.74834   
     axis -180 30 90   XYZ
    dof rx ry rz
    limits (-90.0 60.0)
           (-90.0 90.0)
           (-90.0 90.0)
  end
  begin
     id 26 
     name rradius
     direction -1 -4.48956e-011 -1.31752e-027   
     length 2.79907   
     axis -180 30 90   XYZ
    dof rx
    limits (-10.0 170.0)
  end
  begin
     id 27 
     name rwrist
     direction -1 -4.4897e-011 -7.39254e-028   
     length 1.39954   
     axis 2.56395e-016 -90 -90   XYZ
    dof ry
    limits (-180.0 0.0)
  end
  begin
     id 28
     name rhand
     direction -0.999997 -0.00250697 0.000800838   
     length 0.953304   
     axis 9.43423e-016 -90 -90   XYZ
    dof rx rz
    limits (-90.0 90.0)
           (-45.0 45.0)
  end
  begin
     id 29
     name rfingers
     direction -1 -4.48954e-011 -2.95702e-027   
     length 0.763342   
     axis 1.88685e-015 -90 -90   XYZ
    dof rx
    limits (0.0 90.0)
  end
  begin
     id 30
     name rthumb
     direction -0.709701 -0.00217037 0.7045   
     length 1.10115   
     axis -90 -45 9.86935e-015   XYZ
    dof rx rz
    limits (-45.0 45.0)
           (-45.0 45.0)
  end
:hierarchy
  begin
    root lhipjoint rhipjoint lowerback
    lhipjoint lfemur
    lfemur ltibia
    ltibia lfoot
    lfoot ltoes
    rhipjoint rfemur
    rfemur rtibia
    rtibia rfoot
    rfoot rtoes
    lowerback upperback
    upperback thorax
    thorax lowerneck lclavicle rclavicle
    lowerneck upperneck
    upperneck head
    lclavicle lhumerus
    lhumerus lradius
    lradius lwrist
    lwrist lhand lthumb
    lhand lfingers
    rclavicle rhumerus
    rhumerus rradius
    rradius rwrist
    rwrist rhand rthumb
    rhand rfingers
  end

#!OML:ASF G:\ViconDB\ViconDB\414\test\team2\shane.ASF
:FULLY-SPECIFIED
:DEGREES
66
root 2.00445 16.6731 -15.4976 -8.81101 3.40172 -2.89827
lowerback 10.857 -4.31748 -5.05764
upperback 2.72569 -6.17465 3.63303
thorax -2.25617 -3.09717 7.40017
lowerneck -16.5374 -0.566314 -9.10918
upperneck 19.5955 -0.159419 7.85419
head 8.86008 0.0873395 4.1966
rclavicle 5.50509e-014 -1.82882e-014
rhumerus -60.3494 -7.76108 -48.469
rradius 25.2298
rwrist 46.5331
rhand -26.7553 -13.2214
rfingers 7.12502
rthumb -0.183729 -43.2011
lclavicle 5.50509e-014 -1.82882e-014
lhumerus -2.63046 -25.1511 90.4696
lradius 67.7421
lwrist -18.3339
lhand -49.868 7.31201
lfingers 7.12502
lthumb -22.4624 36.0257
rfemur -23.4286 -20.1437 22.9608
rtibia 34.6414
rfoot -22.8591 9.17265
rtoes -19.3052
lfemur 28.1302 10.5592 -10.5842
ltibia 5.08889e-014
lfoot -21.7474 -22.4065
ltoes -7.16863
67
root 2.00206 16.6212 -15.2944 -8.81377 3.75956 -3.08801
lowerback 10.7143 -4.42906 -5.01931
upperback 2.72868 -6.30893 3.83686
thorax -2.13298 -3.1719 7.59286
lowerneck -16.4717 -0.604205 -9.35537
upperneck 19.6204 -0.150771 7.842
head 8.85625 0.0702395 4.2348
rclavicle 3.05631e-015 1.19271e-014
rhumerus -61.4223 -7.34196 -46.9421
rradius 25.549
rwrist 45.9217
rhand -26.3095 -13.2681
rfingers 7.12502
rthumb 0.246791 -43.2477
lclavicle 3.05631e-015 1.19271e-014
lhumerus -1.83251 -25.0972 90.3687
lradius 67.9639
lwrist -19.3666
lhand -49.9665 7.63112
lfingers 7.12502
lthumb -22.557 36.3334
rfemur -24.1403 -20.9819 23.6507
rtibia 34.1237
rfoot -23.2525 9.76167
rtoes -19.1251
lfemur 28.8152 9.92887 -10.3099
ltibia 4.77083e-014
lfoot -22.196 -22.4549
ltoes -7.21902
68
root 1.99988 16.5866 -15.0891 -8.82694 4.12287 -2.97099
lowerback 10.662 -4.51449 -5.26795
upperback 2.72793 -6.44672 3.90627
thorax -2.0452 -3.24602 7.81398
lowerneck -16.3666 -0.606669 -9.40804
upperneck 19.5585 -0.124234 7.7378
head 8.81398 0.0668111 4.20714
rclavicle -1.70209e-014 -1.35174e-014
rhumerus -62.3741 -6.70252 -45.8244
rradius 25.8611
rwrist 45.1799
rhand -25.8597 -13.0892
rfingers 7.12502
rthumb 0.681226 -43.0679
lclavicle -1.70209e-014 -1.35174e-014
lhumerus -1.19435 -25.2393 90.1044
lradius 68.239
lwrist -19.8319
lhand -49.9604 7.7464
lfingers 7.12502
lthumb -22.5511 36.4494
rfemur -24.5983 -21.475 23.8371
rtibia 33.8224
rfoot -23.5802 10.2513
rtoes -18.8233
lfemur 29.5423 9.3616 -10.399
ltibia -9.54166e-014
lfoot -22.6168 -22.3939
ltoes -7.67362
69
root 1.99942 16.5512 -14.8836 -8.85227 4.54764 -3.06738
lowerback 10.7545 -4.6718 -4.90466
upperback 2.62395 -6.61998 3.84059
thorax -2.22667 -3.3205 7.57172
lowerneck -16.1787 -0.606054 -9.38812
upperneck 19.5648 -0.153199 7.76744
head 8.78432 0.0547685 4.20851
rclavicle 8.79871e-014 -3.02153e-014
rhumerus -63.5152 -6.79319 -44.0998
rradius 26.0114
rwrist 45.5515
rhand -25.4376 -12.3373
rfingers 7.12502
rthumb 1.08888 -42.3143
lclavicle 8.79871e-014 -3.02153e-014
lhumerus -0.817046 -25.343 89.8986
lradius 68.3681
lwrist -20.5964
lhand -49.6855 7.33739
lfingers 7.12502
lthumb -22.2872 36.0721
rfemur -24.9111 -21.8554 24.15
rtibia 33.6975
rfoot -23.9234 10.428
rtoes -18.0729
lfemur 30.2578 8.706 -10.3021
ltibia -4.77083e-014
lfoot -23.123 -22.1392
ltoes -8.64089
70
root 1.98728 16.5144 -14.6719 -8.88584 4.98565 -3.11653
lowerback 10.608 -4.77499 -4.89253
upperback 2.62903 -6.75181 3.83129
thorax -2.12214 -3.39116 7.5499
lowerneck -15.9821 -0.639547 -9.35062
upperneck 19.5091 -0.234635 7.80698
head 8.73704 0.0210269 4.2024
rclavicle 6.28657e-015 -4.77083e-015
rhumerus -64.4018 -6.2834 -43.2707
rradius 26.1261
rwrist 45.1198
rhand -25.184 -11.9865
rfingers 7.12502
rthumb 1.33383 -41.9621
lclavicle 6.28657e-015 -4.77083e-015
lhumerus -0.488905 -25.615 89.7032
lradius 68.5828
lwrist -20.8109
lhand -49.6535 7.00074
lfingers 7.12502
lthumb -22.2565 35.7392
rfemur -24.941 -21.6834 24.2835
rtibia 33.6494
rfoot -24.3826 9.91236
rtoes -18.3724
lfemur 30.9741 8.00507 -10.1758
ltibia 0
lfoot -23.2066 -22.2212
ltoes -9.09121
71
root 1.97728 16.4776 -14.4607 -8.91745 5.49437 -3.22218
lowerback 10.5694 -4.88266 -4.91903
upperback 2.60058 -6.89326 3.97025
thorax -2.08639 -3.46428 7.7225
lowerneck -15.8834 -0.685695 -9.50944
upperneck 19.5317 -0.256194 7.75532
head 8.7295 -0.00825646 4.20813
rclavicle 1.52605e-013 -5.32743e-014
rhumerus -65.0383 -5.57441 -42.5976
rradius 26.2331
rwrist 44.3887
rhand -24.899 -11.9062
rfingers 7.12502
rthumb 1.60907 -41.8799
lclavicle 1.52605e-013 -5.32743e-014
lhumerus -0.236142 -25.7865 89.7207
lradius 68.5981
lwrist -21.2476
lhand -49.6111 7.02651
lfingers 7.12502
lthumb -22.2158 35.7698
rfemur -24.7809 -21.5834 24.3908
rtibia 33.6607
rfoot -24.4286 9.48593
rtoes -17.3875
lfemur 31.6481 7.23719 -10.0327
ltibia 9.22361e-014
lfoot -23.3323 -22.1919
ltoes -10.4697
